# xmcd CD database file
#
# Track frame offsets:
#	150
#	14100
#	32879
#	57622
#	74584
#	116319
#	144270
#	195110
#	220087
#	241948
#	271144
#	281403
#
# Disc length: 4001 seconds
#
# Revision: 0
# Processed by: cddbd v1.5.2PL0 Copyright (c) Steve Scherf et al.
# Submitted via: CDex 1.51
#
DISCID=ae0f9f0c
DTITLE=Dave Bennett - Don't Be That Way
DYEAR=2013
DGENRE=Jazz
TTITLE0=Slipped Disc
TTITLE1=Begin The Beguine
TTITLE2=Don't Be That Way
TTITLE3=Running Wild
TTITLE4=St. James Infirmary
TTITLE5=Yetserday
TTITLE6=Sing, Sing, Sing
TTITLE7=Woodchopper's Ball
TTITLE8=My Inspiration
TTITLE9=Goodbye
TTITLE10=A Funeral In New Orleans
TTITLE11=When The Saints Go Marching In
EXTD=YEAR: 2013
EXTT0=
EXTT1=
EXTT2=
EXTT3=
EXTT4=
EXTT5=
EXTT6=
EXTT7=
EXTT8=
EXTT9=
EXTT10=
EXTT11=
PLAYORDER=
